<svg width="914" height="400" fill="none" xmlns="http://www.w3.org/2000/svg"><style>#CL0 {fill: #333;}@media (prefers-color-scheme: dark) {#CL0 {fill: #DDD;}}</style><path d="M442.117 211h-5.072l-3.049-5.045a16.654 16.654 0 0 0-.656-1.025 5.098 5.098 0 0 0-.643-.766 2.205 2.205 0 0 0-.67-.492 1.594 1.594 0 0 0-.751-.178h-1.19V211h-4.416v-19.605h7c4.758 0 7.137 1.777 7.137 5.332a5.57 5.57 0 0 1-.315 1.9 5.291 5.291 0 0 1-.888 1.559 5.621 5.621 0 0 1-1.395 1.203 7.063 7.063 0 0 1-1.805.793v.054c.292.091.575.242.848.452.274.2.538.437.793.71.255.274.497.57.725.889.237.31.451.615.642.916l3.705 5.797Zm-12.031-16.297v5.455H432c.948 0 1.709-.273 2.283-.82.584-.556.875-1.244.875-2.065 0-1.713-1.025-2.57-3.076-2.57h-1.996Zm17.733 9.543V211h-4.416v-19.605h6.918c4.94 0 7.41 2.082 7.41 6.248 0 1.968-.711 3.563-2.133 4.785-1.412 1.212-3.304 1.818-5.673 1.818h-2.106Zm0-9.461v6.111h1.736c2.352 0 3.528-1.029 3.528-3.089 0-2.015-1.176-3.022-3.528-3.022h-1.736ZM482.382 211h-4.361v-11.73c0-1.267.054-2.666.164-4.198h-.11c-.227 1.203-.432 2.069-.615 2.598L472.866 211h-3.609l-4.676-13.193c-.127-.356-.332-1.267-.615-2.735h-.123c.119 1.933.178 3.628.178 5.086V211h-3.979v-19.605h6.467l4.006 11.621c.319.929.551 1.864.697 2.802h.082c.246-1.084.506-2.028.78-2.83l4.005-11.593h6.303V211Zm7.558 0v-19.605h5.359c.811 0 1.541.109 2.188.328.656.218 1.212.528 1.668.929a3.9 3.9 0 0 1 1.066 1.422c.246.556.369 1.167.369 1.832 0 .565-.077 1.094-.232 1.586a4.81 4.81 0 0 1-.67 1.354 4.561 4.561 0 0 1-1.08 1.052 5.37 5.37 0 0 1-1.436.698v.054a5.353 5.353 0 0 1 1.791.479c.538.255.998.588 1.381.998.383.41.679.893.889 1.449.21.547.314 1.149.314 1.805 0 .829-.15 1.59-.451 2.283a5.248 5.248 0 0 1-1.271 1.777 5.742 5.742 0 0 1-1.928 1.149c-.747.273-1.572.41-2.475.41h-5.482Zm1.818-17.938v6.959h2.543c.666 0 1.267-.086 1.805-.259a3.956 3.956 0 0 0 1.381-.752c.383-.328.674-.725.875-1.19.209-.465.314-.989.314-1.572 0-2.124-1.321-3.186-3.965-3.186h-2.953Zm0 8.6v7.684h3.377c1.449 0 2.561-.338 3.336-1.012.784-.684 1.176-1.65 1.176-2.898 0-2.516-1.709-3.774-5.127-3.774h-2.762ZM513.894 211v-2.379h-.055c-.948 1.805-2.42 2.707-4.416 2.707-3.327 0-4.99-2.032-4.99-6.098V197h1.75v7.902c0 1.677.296 2.917.888 3.719.602.802 1.518 1.203 2.748 1.203.602 0 1.149-.114 1.641-.342.501-.237.93-.565 1.285-.984.365-.428.647-.939.848-1.531a6.13 6.13 0 0 0 .301-1.969V197h1.75v14h-1.75Zm6.563-17.541c-.338 0-.629-.119-.875-.355a1.2 1.2 0 0 1-.37-.903c0-.355.124-.647.37-.875.246-.237.537-.355.875-.355.173 0 .337.032.492.095.155.055.287.137.396.246.119.11.21.242.274.397.073.146.109.31.109.492a1.276 1.276 0 0 1-.369.903 1.38 1.38 0 0 1-.41.259c-.146.064-.31.096-.492.096ZM519.595 211v-14h1.75v14h-1.75Zm5.702 0v-20.727h1.75V211h-1.75Zm15.518 0v-2.461h-.055a5.008 5.008 0 0 1-1.996 2.065c-.856.483-1.832.724-2.925.724-.875 0-1.673-.159-2.393-.478a5.21 5.21 0 0 1-1.832-1.409c-.51-.61-.907-1.349-1.189-2.214-.274-.866-.411-1.846-.411-2.94 0-1.13.151-2.16.452-3.09.309-.939.742-1.741 1.298-2.406a5.82 5.82 0 0 1 2.024-1.559c.793-.373 1.672-.56 2.638-.56 2.015 0 3.459.807 4.334 2.42h.055v-8.819h1.75V211h-1.75Zm0-8.449c0-.611-.105-1.181-.314-1.709a4.261 4.261 0 0 0-.875-1.381 4.075 4.075 0 0 0-1.354-.93 4.239 4.239 0 0 0-1.722-.342 4.45 4.45 0 0 0-1.915.411 4.21 4.21 0 0 0-1.503 1.189c-.411.51-.734 1.135-.971 1.873-.228.738-.342 1.577-.342 2.516 0 .884.105 1.677.315 2.379.209.701.505 1.294.888 1.777.392.483.857.852 1.395 1.107a4.108 4.108 0 0 0 1.791.383c.711 0 1.349-.127 1.914-.383a4.135 4.135 0 0 0 1.449-1.052c.401-.447.706-.971.916-1.573a5.587 5.587 0 0 0 .328-1.927v-2.338Zm6.536 1.763c.009.857.123 1.627.342 2.311.218.684.533 1.262.943 1.736.41.474.907.839 1.49 1.094.593.246 1.258.369 1.996.369 1.577 0 3.067-.551 4.471-1.654v1.723c-1.34.957-2.962 1.435-4.867 1.435-.939 0-1.791-.164-2.557-.492a5.339 5.339 0 0 1-1.955-1.422c-.538-.629-.952-1.399-1.244-2.31-.292-.912-.438-1.951-.438-3.118 0-1.048.16-2.019.479-2.912.319-.893.761-1.663 1.326-2.31a5.989 5.989 0 0 1 2.01-1.532 5.785 5.785 0 0 1 2.543-.56c.902 0 1.7.159 2.392.478a4.58 4.58 0 0 1 1.737 1.34c.474.584.834 1.295 1.08 2.133.246.839.369 1.777.369 2.816v.875h-10.117Zm8.312-1.531c-.027-1.458-.373-2.588-1.039-3.39-.665-.803-1.59-1.204-2.775-1.204a4.3 4.3 0 0 0-1.654.315c-.502.21-.944.515-1.327.916a4.925 4.925 0 0 0-.957 1.449 7.341 7.341 0 0 0-.519 1.914h8.271Zm11.622-3.992c-.41-.301-.939-.451-1.586-.451a2.66 2.66 0 0 0-1.23.273 3.1 3.1 0 0 0-.944.711 4.558 4.558 0 0 0-.683 1.053 7.91 7.91 0 0 0-.452 1.23c-.109.429-.191.862-.246 1.299-.045.438-.068.852-.068 1.244V211h-1.736v-14h1.736v2.994h.055c.164-.51.369-.966.615-1.367.255-.41.547-.752.875-1.025a3.584 3.584 0 0 1 1.066-.643 3.497 3.497 0 0 1 1.231-.219c.282 0 .533.018.752.055.228.036.433.091.615.164v1.832Zm-183.726 19.197a4.384 4.384 0 0 1-3.745-2.134l-1.438-2.415-1.376 2.312a4.377 4.377 0 0 1-3.745 2.134 4.396 4.396 0 0 1-2.122-.551l-17.394-9.659v15.273L378.612 236l24.873-13.052v-15.397l-17.804 9.886a4.385 4.385 0 0 1-2.122.551Z" id="CL0"/><path d="M403.216 193.737a2.4 2.4 0 0 0-.916-1.55l-.174-.133-22.134-10.371c-.821-.489-1.943-.489-2.764 0l-22.13 10.371-.174.137a2.4 2.4 0 0 0-.452.46l-5.913 6.696a2.218 2.218 0 0 0 .593 3.418l4.587 2.548 3.994 2.217 14.407 7.997a2.285 2.285 0 0 0 3.079-.833l1.396-2.345 1.761-2.963 2.233 3.75.986 1.658a2.285 2.285 0 0 0 3.083.833l14.817-8.225 3.995-2.217 4.176-2.32a2.214 2.214 0 0 0 1.119-1.571 2.213 2.213 0 0 0-.53-1.852l-5.039-5.705Zm-24.604 10.002-18.588-9.584 18.588-8.71 18.588 8.71-18.588 9.584Z" id="CL0"/><rect x="365.013" y="184.354" width="3.038" height="10.633" rx="1.519" id="CL0"/><rect x="358.937" y="178.279" width="3.038" height="9.722" rx="1.519" id="CL0"/><rect x="371.088" y="192.253" width="3.038" height="5.165" rx="1.519" id="CL0"/><rect x="371.088" y="176.76" width="3.038" height="13.975" rx="1.519" id="CL0"/><rect x="371.088" y="172.203" width="3.038" height="3.038" rx="1.519" id="CL0"/><rect x="377.165" y="179.19" width="3.038" height="8.81" rx="1.519" id="CL0"/><rect x="377.165" y="189.519" width="3.038" height="10.329" rx="1.519" id="CL0"/><rect x="383.241" y="180.709" width="3.038" height="12.152" rx="1.519" id="CL0"/><rect x="395.393" y="182.228" width="3.038" height="4.861" rx="1.519" id="CL0"/><rect x="383.241" y="176.152" width="3.038" height="3.038" rx="1.519" id="CL0"/><rect x="383.241" y="194.38" width="3.038" height="3.038" rx="1.519" id="CL0"/><rect x="389.316" y="172.506" width="3.038" height="22.481" rx="1.519" id="CL0"/><path fill-rule="evenodd" clip-rule="evenodd" d="M358.937 165.519c0-.839.68-1.519 1.519-1.519h36.455c.839 0 1.519.68 1.519 1.519v13.671a1.519 1.519 0 1 1-3.038 0v-10.633a1.519 1.519 0 1 0-3.038 0v.911a1.519 1.519 0 1 1-3.038 0v-.911a1.519 1.519 0 1 0-3.038 0v4.557a1.519 1.519 0 1 1-3.037 0v-4.557a1.52 1.52 0 0 0-3.038 0v7.595a1.52 1.52 0 0 1-3.038 0v-7.595a1.52 1.52 0 0 0-3.038 0v.608a1.52 1.52 0 0 1-3.038 0v-.608a1.519 1.519 0 1 0-3.038 0v12.759a1.519 1.519 0 1 1-3.038 0v-12.759a1.519 1.519 0 1 0-3.039 0v6.684a1.518 1.518 0 0 1-3.037 0v-9.722Z" id="CL0"/></svg>